<?xml version="1.0" encoding="utf-8"?><svg version="1.1" id="Layer_1" xmlns="http://www.w3.org/2000/svg" xmlns:xlink="http://www.w3.org/1999/xlink" x="0px" y="0px" viewBox="0 0 122.88 109.73" style="enable-background:new 0 0 122.88 109.73" xml:space="preserve"><style type="text/css">.st0{fill-rule:evenodd;clip-rule:evenodd;}</style><g><path class="st0" d="M36.08,75.88l-8.5-0.05v-2.26c0-2.45-1.34-2.18-3.08-2.18H1.64c-0.9,0-1.64,0.74-1.64,1.64v22.5 c0,0.9,0.74,1.64,1.64,1.64h3.01h0.44c0-4.43,3.67-8.02,8.02-8.02c4.35,0,7.75,3.32,8,7.52c-0.09,0.13-0.14,0.3-0.14,0.47 c0,0.45,0.37,0.84,0.84,0.84h4.93c0.47,0,0.84-0.37,0.84-0.84v-0.96h5.05c0.38-8.71,12.88-9.92,14.15,0h2.75l-0.85-9.08l-9.01-3.45 L36.08,75.88L36.08,75.88L36.08,75.88z M55.29,104.02c-2.02-0.58-3.67,1.75-2.47,3.48c0.3,0.44,0.75,0.75,1.26,0.9 c1.55,0.43,3.08,0.76,4.66,1.04c0.88,0.14,1.78-0.24,2.26-0.99c0.9-1.36,0.08-3.23-1.53-3.48 C58.07,104.71,56.67,104.4,55.29,104.02L55.29,104.02z M70.77,105.2c-0.96,0.04-1.8,0.7-2.07,1.62c-0.44,1.5,0.72,2.97,2.28,2.91 c1.58-0.07,3.19-0.21,4.75-0.45c2.43-0.41,2.62-3.81,0.19-4.45c-0.29-0.07-0.57-0.08-0.87-0.04C73.62,105,72.21,105.14,70.77,105.2 L70.77,105.2z M102.91,57.57c0.56,2.04,3.32,2.3,4.25,0.37c0.23-0.51,0.27-0.99,0.14-1.54c-0.4-1.53-0.9-3.07-1.47-4.55 c-0.32-0.83-1.1-1.4-1.99-1.45c-1.65-0.09-2.83,1.55-2.24,3.08C102.1,54.82,102.55,56.2,102.91,57.57L102.91,57.57z M96.21,44.32 c1.43,2.13,4.73,0.7,4.08-1.85c-0.07-0.23-0.15-0.42-0.28-0.62c-0.87-1.34-1.79-2.62-2.79-3.86c-1.47-1.82-4.44-0.49-3.98,1.9 c0.08,0.35,0.22,0.66,0.45,0.95C94.59,41.96,95.42,43.11,96.21,44.32L96.21,44.32z M35.29,34.01c0.52-0.51,0.75-1.19,0.67-1.91 c-0.24-1.86-2.49-2.65-3.83-1.35c-1.14,1.1-2.24,2.26-3.26,3.48c-1.06,1.27-0.46,3.18,1.13,3.64c0.89,0.24,1.75-0.04,2.35-0.73 C33.28,36.04,34.25,35.01,35.29,34.01L35.29,34.01z M26.62,44.55c0.47-0.88,0.3-1.96-0.4-2.67c-1.09-1.07-2.89-0.8-3.6,0.55 c-0.75,1.41-1.42,2.84-2.02,4.31c-0.88,2.16,1.71,4.12,3.58,2.57c0.28-0.25,0.48-0.52,0.62-0.86 C25.34,47.11,25.95,45.82,26.62,44.55L26.62,44.55z M22.72,57.9c0.17-0.98-0.31-1.96-1.2-2.42c-1.35-0.68-3.01,0.13-3.26,1.63 c-0.29,1.58-0.46,3.15-0.59,4.75c-0.05,0.78,0.29,1.51,0.92,1.97c1.44,1.06,3.5,0.1,3.61-1.68C22.29,60.72,22.46,59.31,22.72,57.9 L22.72,57.9z M97.79,90.71c2.17,4.52,8.74,4.68,10.82,0.03c-0.57-0.57-0.99-1.19-1.4-1.8c-0.07-0.1-0.14-0.2-0.21-0.3 c-1,0.79-2.22,1.3-3.8,1.3c-1.71,0-3-0.66-4.05-1.62c-0.06-0.06-0.13-0.12-0.19-0.18c-0.15,0.42-0.34,0.92-0.55,1.39 C98.2,89.98,97.99,90.4,97.79,90.71L97.79,90.71L97.79,90.71z M109.21,90.23c2.31,1.63,7.94,2.03,10.1,3.23 c0.72,0.4,1.37,0.91,1.89,1.6c1.09,1.44,3.31,6.65-0.3,6.92c-11.81,0-23.62,0-35.44,0c-3.61-0.27-1.38-5.49-0.3-6.92 c0.52-0.69,1.17-1.2,1.89-1.6c2.15-1.2,7.76-1.6,10.08-3.22c0.17-0.26,0.36-0.63,0.53-1.03c0.27-0.61,0.51-1.28,0.67-1.73 c-0.65-0.77-1.21-1.63-1.74-2.48l-1.76-2.8c-0.64-0.96-0.98-1.84-1-2.56c-0.01-0.34,0.05-0.65,0.17-0.92 c0.13-0.28,0.33-0.52,0.61-0.7c0.13-0.09,0.27-0.16,0.43-0.22c-0.11-1.52-0.16-3.44-0.08-5.04c0.04-0.38,0.11-0.76,0.22-1.14 c0.45-1.61,1.58-2.9,2.98-3.8c0.77-0.49,1.62-0.86,2.5-1.11c0.56-0.16-0.08-1.42,0.5-1.48c2.8-0.29,6.93,1.74,8.88,3.85 c0.98,1.06,1.59,2.46,1.73,4.32l-0.11,4.57l0,0c0.49,0.15,0.8,0.46,0.93,0.96c0.14,0.56-0.01,1.34-0.48,2.41l0,0 c-0.01,0.02-0.02,0.04-0.03,0.06l-2.01,3.31c-0.74,1.22-1.49,2.43-2.46,3.4c0.09,0.13,0.18,0.26,0.26,0.38 c0.4,0.58,0.8,1.17,1.31,1.69C109.18,90.19,109.2,90.21,109.21,90.23L109.21,90.23L109.21,90.23z M96.06,78.61 c-0.39,0.02-0.69,0.1-0.89,0.23c-0.12,0.08-0.2,0.18-0.25,0.29c-0.06,0.13-0.09,0.29-0.08,0.47c0.02,0.54,0.3,1.24,0.84,2.04 l0.01,0.01l1.76,2.8c0.71,1.12,1.45,2.27,2.37,3.11c0.89,0.81,1.96,1.36,3.38,1.36c1.54,0,2.66-0.57,3.58-1.42 c0.95-0.89,1.7-2.11,2.44-3.32l1.99-3.27c0.37-0.84,0.51-1.41,0.42-1.74c-0.05-0.2-0.27-0.29-0.64-0.31c-0.08,0-0.16,0-0.24,0 c-0.09,0-0.18,0.01-0.28,0.02c-0.05,0-0.1,0-0.15-0.01c-0.18,0.01-0.36,0-0.54-0.03l0.68-3.01c-5.05,0.8-8.82-2.95-14.15-0.75 l0.38,3.55C96.45,78.64,96.25,78.63,96.06,78.61L96.06,78.61L96.06,78.61L96.06,78.61z M43.34,36.8h41.97v2.36H43.34V36.8 L43.34,36.8z M64.87,6.31l-0.51,4.91h5.51l-0.51-4.91H64.87L64.87,6.31L64.87,6.31z M50.38,0l-0.71,6.85h7.7L56.66,0H50.38L50.38,0 L50.38,0z M49.53,8.16l-0.35,3.36h8.67L57.5,8.16H49.53L49.53,8.16L49.53,8.16z M49.05,12.83l-0.52,6.08l-3.24-0.6v17.32h38.08 V24.29l-12.59-1.3l-0.47-7.5h-6.4l-0.31,6.18l-4.9-0.9l-0.72-7.94H49.05L49.05,12.83L49.05,12.83z M64.26,12.15l-0.25,2.41h6.2 l-0.25-2.41H64.26L64.26,12.15z M13.09,90.83c-3.14,0-5.66,2.54-5.66,5.66c0,3.14,2.54,5.66,5.66,5.66c3.14,0,5.66-2.54,5.66-5.66 C18.75,93.36,16.21,90.83,13.09,90.83L13.09,90.83z M13.09,94.32c-1.2,0-2.18,0.98-2.18,2.18c0,1.2,0.98,2.18,2.18,2.18 c1.2,0,2.18-0.98,2.18-2.18C15.27,95.29,14.29,94.32,13.09,94.32L13.09,94.32z M39.7,90.83c-3.14,0-5.66,2.54-5.66,5.66 c0,3.14,2.54,5.66,5.66,5.66c3.14,0,5.66-2.54,5.66-5.66C45.37,93.36,42.82,90.83,39.7,90.83L39.7,90.83z M39.7,94.32 c-1.2,0-2.18,0.98-2.18,2.18c0,1.2,0.98,2.18,2.18,2.18c1.2,0,2.18-0.98,2.18-2.18C41.88,95.29,40.91,94.32,39.7,94.32L39.7,94.32z M33.9,78.27l-4.22-0.05v5.44h7.07L33.9,78.27L33.9,78.27z"/></g></svg>